<mxfile host="app.diagrams.net" modified="2024-07-05T14:21:12.151Z" agent="Mozilla/5.0 (Macintosh; Intel Mac OS X 10_15_7) AppleWebKit/537.36 (KHTML, like Gecko) Chrome/116.0.0.0 Safari/537.36" etag="u3l-yxbRzMJiTktr5GYj" version="24.6.4" type="device">
  <diagram name="Page-1" id="xRLkIFkWdUhjr0aA2sKJ">
    <mxGraphModel dx="162" dy="223" grid="1" gridSize="10" guides="1" tooltips="1" connect="1" arrows="1" fold="1" page="1" pageScale="1" pageWidth="850" pageHeight="1100" math="0" shadow="0">
      <root>
        <mxCell id="0" />
        <mxCell id="1" parent="0" />
        <mxCell id="3yw-V0o8lz5Fk0nfyFQE-1" value="" style="rounded=1;whiteSpace=wrap;html=1;fontStyle=1" vertex="1" parent="1">
          <mxGeometry x="230" y="200" width="700" height="310" as="geometry" />
        </mxCell>
        <mxCell id="3yw-V0o8lz5Fk0nfyFQE-2" value="DATA" style="text;html=1;align=center;verticalAlign=middle;whiteSpace=wrap;rounded=0;fontStyle=1" vertex="1" parent="1">
          <mxGeometry x="250" y="210" width="60" height="30" as="geometry" />
        </mxCell>
        <mxCell id="3yw-V0o8lz5Fk0nfyFQE-3" value="" style="rounded=1;whiteSpace=wrap;html=1;fontStyle=1" vertex="1" parent="1">
          <mxGeometry x="230" y="550" width="690" height="310" as="geometry" />
        </mxCell>
        <mxCell id="3yw-V0o8lz5Fk0nfyFQE-4" value="DOMAIN" style="text;html=1;align=center;verticalAlign=middle;whiteSpace=wrap;rounded=0;fontStyle=1" vertex="1" parent="1">
          <mxGeometry x="250" y="560" width="60" height="30" as="geometry" />
        </mxCell>
        <mxCell id="3yw-V0o8lz5Fk0nfyFQE-5" value="" style="rounded=1;whiteSpace=wrap;html=1;fontStyle=1" vertex="1" parent="1">
          <mxGeometry x="230" y="900" width="690" height="300" as="geometry" />
        </mxCell>
        <mxCell id="3yw-V0o8lz5Fk0nfyFQE-6" value="PRESENTATION" style="text;html=1;align=center;verticalAlign=middle;whiteSpace=wrap;rounded=0;fontStyle=1" vertex="1" parent="1">
          <mxGeometry x="270" y="910" width="60" height="30" as="geometry" />
        </mxCell>
        <mxCell id="3yw-V0o8lz5Fk0nfyFQE-13" style="edgeStyle=orthogonalEdgeStyle;rounded=0;orthogonalLoop=1;jettySize=auto;html=1;entryX=0;entryY=0.75;entryDx=0;entryDy=0;" edge="1" parent="1" source="3yw-V0o8lz5Fk0nfyFQE-9" target="3yw-V0o8lz5Fk0nfyFQE-10">
          <mxGeometry relative="1" as="geometry">
            <Array as="points">
              <mxPoint x="690" y="1103" />
            </Array>
          </mxGeometry>
        </mxCell>
        <mxCell id="3yw-V0o8lz5Fk0nfyFQE-9" value="&lt;font style=&quot;font-size: 17px;&quot;&gt;MainActivityVeiWModel&lt;/font&gt;" style="rounded=1;whiteSpace=wrap;html=1;" vertex="1" parent="1">
          <mxGeometry x="455" y="960" width="205" height="190" as="geometry" />
        </mxCell>
        <mxCell id="3yw-V0o8lz5Fk0nfyFQE-10" value="&lt;font style=&quot;font-size: 17px;&quot;&gt;MainActivity&lt;/font&gt;&lt;div&gt;&lt;font style=&quot;font-size: 17px;&quot;&gt;PersonFragment&lt;/font&gt;&lt;/div&gt;&lt;div&gt;&lt;font style=&quot;font-size: 17px;&quot;&gt;PlanetFragment&lt;/font&gt;&lt;/div&gt;" style="rounded=1;whiteSpace=wrap;html=1;" vertex="1" parent="1">
          <mxGeometry x="720" y="960" width="170" height="190" as="geometry" />
        </mxCell>
        <mxCell id="3yw-V0o8lz5Fk0nfyFQE-11" value="UI" style="text;html=1;align=center;verticalAlign=middle;whiteSpace=wrap;rounded=0;fontStyle=1" vertex="1" parent="1">
          <mxGeometry x="720" y="960" width="60" height="30" as="geometry" />
        </mxCell>
        <mxCell id="3yw-V0o8lz5Fk0nfyFQE-12" value="ViewModel" style="text;html=1;align=center;verticalAlign=middle;whiteSpace=wrap;rounded=0;fontStyle=1" vertex="1" parent="1">
          <mxGeometry x="470" y="960" width="60" height="30" as="geometry" />
        </mxCell>
        <mxCell id="3yw-V0o8lz5Fk0nfyFQE-14" style="edgeStyle=orthogonalEdgeStyle;rounded=0;orthogonalLoop=1;jettySize=auto;html=1;entryX=0.989;entryY=0.278;entryDx=0;entryDy=0;entryPerimeter=0;" edge="1" parent="1" source="3yw-V0o8lz5Fk0nfyFQE-10" target="3yw-V0o8lz5Fk0nfyFQE-9">
          <mxGeometry relative="1" as="geometry">
            <Array as="points">
              <mxPoint x="690" y="1013" />
            </Array>
          </mxGeometry>
        </mxCell>
      </root>
    </mxGraphModel>
  </diagram>
</mxfile>
